<svg width="274" height="87" viewBox="0 0 274 87" fill="none" xmlns="http://www.w3.org/2000/svg">
<path d="M20.064 86.584L3.936 85.144L7.488 19.192C5.824 19.576 4.288 20.024 2.88 20.536L0 4.216C3.392 3.512 7.584 2.776 12.576 2.008C17.568 1.24 22.72 0.855999 28.032 0.855999C32.128 0.855999 36.288 1.304 40.512 2.2C44.736 3.032 48.768 4.43999 52.608 6.424C56.512 8.344 59.968 10.936 62.976 14.2C66.048 17.464 68.448 21.464 70.176 26.2C71.968 30.936 72.864 36.536 72.864 43C72.864 52.088 71.392 59.864 68.448 66.328C65.568 72.728 61.344 77.624 55.776 81.016C50.272 84.408 43.616 86.104 35.808 86.104C30.624 86.104 25.504 85.144 20.448 83.224C20.32 84.504 20.192 85.624 20.064 86.584ZM27.36 16.984C26.464 16.984 25.536 16.984 24.576 16.984C23.936 28.888 23.36 39.032 22.848 47.416C22.336 55.736 21.888 62.68 21.504 68.248C23.424 68.888 25.536 69.464 27.84 69.976C30.208 70.424 32.672 70.648 35.232 70.648C40.416 70.648 44.576 69.336 47.712 66.712C50.912 64.088 53.216 60.632 54.624 56.344C56.032 51.992 56.736 47.288 56.736 42.232C56.736 38.2 56.128 34.776 54.912 31.96C53.696 29.144 52.096 26.808 50.112 24.952C48.192 23.096 46.08 21.656 43.776 20.632C41.472 19.544 39.2 18.744 36.96 18.232C34.784 17.72 32.832 17.4 31.104 17.272C29.376 17.08 28.128 16.984 27.36 16.984ZM109.62 86.872C104.5 86.872 100.02 86.04 96.18 84.376C92.404 82.712 89.268 80.44 86.772 77.56C84.276 74.616 82.42 71.256 81.204 67.48C79.988 63.704 79.38 59.736 79.38 55.576C79.38 51.352 80.116 47.448 81.588 43.864C83.124 40.216 85.204 37.048 87.828 34.36C90.516 31.672 93.652 29.592 97.236 28.12C100.82 26.584 104.724 25.816 108.948 25.816C113.364 25.816 117.46 26.584 121.236 28.12C125.012 29.656 128.308 31.8 131.124 34.552C133.94 37.304 136.116 40.536 137.652 44.248C139.252 47.96 140.052 51.992 140.052 56.344C140.052 66.008 137.396 73.528 132.084 78.904C126.772 84.216 119.284 86.872 109.62 86.872ZM109.524 71.32C114.196 71.32 117.748 70.008 120.18 67.384C122.676 64.76 123.924 60.984 123.924 56.056C123.924 51.64 122.58 48.088 119.892 45.4C117.204 42.712 113.684 41.368 109.332 41.368C106.708 41.368 104.308 42.072 102.132 43.48C99.956 44.824 98.196 46.648 96.852 48.952C95.572 51.192 94.932 53.688 94.932 56.44C94.932 58.872 95.412 61.24 96.372 63.544C97.396 65.848 98.996 67.736 101.172 69.208C103.348 70.616 106.132 71.32 109.524 71.32ZM171.626 85.624C171.114 82.296 170.666 78.264 170.282 73.528C169.962 68.792 169.706 63.64 169.514 58.072C169.386 52.504 169.322 46.84 169.322 41.08C169.322 33.848 169.45 26.808 169.706 19.96C169.962 13.112 170.346 7.09599 170.858 1.912L188.522 2.2C187.818 6.744 187.274 12.088 186.89 18.232C186.57 24.376 186.41 31.352 186.41 39.16C186.41 47.096 186.538 55.064 186.794 63.064C187.114 71.064 187.466 78.392 187.85 85.048L171.626 85.624ZM226.158 86.584C222.318 86.584 219.278 85.752 217.038 84.088C214.798 82.488 213.166 80.248 212.142 77.368C211.118 74.488 210.446 71.192 210.126 67.48C209.87 63.768 209.742 59.864 209.742 55.768C209.742 51.544 209.902 47.16 210.222 42.616C205.934 43.192 201.806 43.928 197.838 44.824L194.862 29.752C200.174 28.344 205.838 27.32 211.854 26.68C212.302 23.416 212.782 19.992 213.294 16.408C213.806 12.76 214.382 8.92 215.022 4.888L231.534 6.328C230.766 9.656 230.094 12.984 229.518 16.312C228.942 19.576 228.43 22.744 227.982 25.816C231.566 25.816 234.926 25.912 238.062 26.104C241.262 26.232 244.206 26.488 246.894 26.872L244.974 41.944C242.734 41.688 240.398 41.528 237.966 41.464C235.598 41.336 233.198 41.272 230.766 41.272C229.294 41.272 227.822 41.304 226.35 41.368C225.966 46.04 225.71 50.04 225.582 53.368C225.518 56.696 225.486 59.064 225.486 60.472C225.486 63.992 225.678 66.52 226.062 68.056C226.51 69.592 227.214 70.36 228.174 70.36C229.262 70.36 230.478 70.008 231.822 69.304C233.166 68.536 234.478 67.512 235.758 66.232C237.102 64.952 238.222 63.576 239.118 62.104L246.51 77.56C240.174 83.576 233.39 86.584 226.158 86.584ZM262.918 86.776C260.486 86.776 258.47 86.232 256.87 85.144C255.27 84.056 254.086 82.648 253.318 80.92C252.55 79.192 252.166 77.4 252.166 75.544C252.166 72.024 253.286 69.336 255.526 67.48C257.766 65.56 260.454 64.6 263.59 64.6C266.79 64.6 269.318 65.56 271.174 67.48C273.03 69.4 273.958 71.96 273.958 75.16C273.958 79.256 272.838 82.2 270.598 83.992C268.422 85.848 265.862 86.776 262.918 86.776Z" fill="#DD7D1D"/>
</svg>
