<svg width="100" height="100" viewBox="0 0 100 100" fill="none" xmlns="http://www.w3.org/2000/svg">
<g clip-path="url(#clip0_25_6)">
<path d="M57.6923 7.69231C57.6923 3.4375 54.2548 0 50 0C45.7452 0 42.3077 3.4375 42.3077 7.69231V42.3077H7.69231C3.4375 42.3077 0 45.7452 0 50C0 54.2548 3.4375 57.6923 7.69231 57.6923H42.3077V92.3077C42.3077 96.5625 45.7452 100 50 100C54.2548 100 57.6923 96.5625 57.6923 92.3077V57.6923H92.3077C96.5625 57.6923 100 54.2548 100 50C100 45.7452 96.5625 42.3077 92.3077 42.3077H57.6923V7.69231Z" fill="#DD7D1D"/>
</g>
<defs>
<clipPath id="clip0_25_6">
<rect width="100" height="100" fill="white"/>
</clipPath>
</defs>
</svg>
